<svg version="1.1" id="layer_1" xmlns="http://www.w3.org/2000/svg" xmlnsXlink="http://www.w3.org/1999/xlink" x="0px" y="0px" viewBox="0 0 200 60" style={{ enableBackground: 'new 0 0 200 60' }} xmlSpace="preserve">
<style>{`.el_sound{fill:none;stroke:#fff;stroke-width:2;stroke-miterlimit:10;}`}</style>
<g fill="none" fill-rule="evenodd" stroke="currentColor" stroke-width="1" className="lines-text">
	<path className="el_sound" d="M23.2,29.4c-1.1,0-1.6,0.5-1.6,1.4c0,1,0.5,1.4,1.5,1.4c3,0,5.4,1,7.3,2.9c1.9,1.9,2.9,4.4,2.9,7.4c0,3-1,5.5-2.9,7.5C28.5,52,26,53,23,53c-3,0-5.5-1-7.5-2.9c-1.9-1.9-2.9-4.4-2.9-7.5v-3.3c0-1-0.5-1.5-1.4-1.5c-1,0-1.4,0.5-1.4,1.5v15.1c0,1.5-0.5,2.7-1.5,3.7c-1,1-2.3,1.5-3.7,1.5H2.5v-3.8h1.9c1,0,1.5-0.5,1.5-1.4V39.2c0-1.6,0.5-2.9,1.4-3.8c1-1,2.2-1.4,3.8-1.4s2.9,0.5,3.8,1.4c1,1,1.4,2.2,1.4,3.8v3.3c0,2.7,1,4.5,3,5.6c1.1,0.6,2.3,0.9,3.5,0.9c1.2,0,2.4-0.3,3.5-0.9c2-1.1,3-3,3-5.6c0-2.6-1-4.4-3-5.5c-1.2-0.6-2.3-0.9-3.5-0.9c-1.6,0-2.9-0.5-3.8-1.4c-1-1-1.4-2.2-1.4-3.8c0-1.6,0.5-2.9,1.4-3.8c1-1,2.2-1.4,3.7-1.4c1.2,0,2.4-0.3,3.5-0.9c2-1.1,3-3,3-5.5c0-2.6-1-4.5-3-5.6c-1.1-0.6-2.3-0.9-3.5-0.9c-1.2,0-2.4,0.3-3.5,0.9c-2,1.1-3,3-3,5.6v1.7c0,1.5-0.5,2.8-1.5,3.8c-1,1-2.2,1.5-3.8,1.5c-1.5,0-2.8-0.5-3.8-1.5c-1-1-1.5-2.2-1.5-3.8v-1.7c0-6,2.1-10.5,6.3-13.6c3.2-2.3,6.7-3.5,10.7-3.5c4,0,7.6,1.2,10.7,3.5c4.2,3.1,6.3,7.6,6.3,13.6c0,4.8-1.4,8.7-4.2,11.7c2.8,2.8,4.2,6.7,4.2,11.7c0,5.8-2,10.2-5.9,13.2h9.3v3.8H23v-3.8c2.3,0,4.6-0.6,6.8-1.7c4.3-2.2,6.4-6,6.4-11.5c0-5.4-2.4-9.3-7.1-11.7c4.8-2.4,7.1-6.3,7.1-11.7c0-5.5-2.1-9.3-6.4-11.5c-2.2-1.2-4.5-1.7-6.8-1.7c-2.3,0-4.6,0.6-6.8,1.7c-4.3,2.2-6.4,6-6.4,11.5v1.7c0,1,0.5,1.4,1.4,1.4c1,0,1.4-0.5,1.4-1.4v-1.7c0-3,1-5.5,2.9-7.5c1.9-1.9,4.4-2.9,7.4-2.9s5.5,1,7.5,2.9c1.9,1.9,2.9,4.4,2.9,7.5C33.3,25.4,29.9,28.8,23.2,29.4z" />
	<path className="el_sound" d="M75.4,2.1c2.8,0,5.4,0.8,7.6,2.4c3,2.2,4.5,5.3,4.5,9.5c0,4.2-1.5,7.4-4.5,9.6c-2.2,1.6-4.7,2.4-7.6,2.4H58.6c-1,0-1.5,0.5-1.5,1.4c0,1,0.5,1.5,1.5,1.5h16.8c2.9,0,5.4,0.8,7.6,2.4c3,2.2,4.5,5.4,4.5,9.6s-1.5,7.4-4.5,9.6c-2.2,1.6-4.7,2.5-7.6,2.5H58.6c-1,0-1.5,0.5-1.5,1.4c0,1,0.5,1.4,1.5,1.4h35.5v3.8H58.6c-1.5,0-2.8-0.5-3.8-1.5c-1-1-1.5-2.2-1.5-3.8c0-1.5,0.5-2.8,1.5-3.8c1-1,2.3-1.5,3.8-1.5h16.8c1.5,0,3-0.4,4.4-1.2c2.5-1.4,3.8-3.7,3.8-7.1s-1.3-5.7-3.8-7.1c-1.4-0.8-2.9-1.2-4.4-1.2H58.6c-1.5,0-2.8-0.5-3.8-1.5c-1-1-1.5-2.2-1.5-3.8c0-1.5,0.5-2.7,1.5-3.7c1-1,2.3-1.5,3.8-1.5h16.8c1.5,0,3-0.4,4.4-1.2c2.5-1.3,3.8-3.7,3.8-7.1c0-3.4-1.3-5.7-3.8-7.1c-1.3-0.7-2.8-1.1-4.4-1.1h-25v48.5	c0,1.5-0.5,2.8-1.5,3.8c-1,1-2.2,1.5-3.8,1.5h-1.9v-3.8h1.9c1,0,1.5-0.5,1.5-1.4V2.1H75.4z" />
	<path className="el_sound" d="M141.6,30.9c0,9.1-3.7,15.5-11,19.2c-3.8,1.9-7.5,2.9-11.1,2.9h-10.2c-1,0-1.5,0.5-1.5,1.4c0,1,0.5,1.4,1.5,1.4h35.6v3.8h-35.6c-1.5,0-2.7-0.5-3.7-1.5c-1-1-1.5-2.3-1.5-3.7c0-1.6,0.5-2.9,1.4-3.8c1-1,2.2-1.4,3.8-1.4h10.2c3.2,0,6.4-0.8,9.4-2.4c5.9-3,8.9-8.3,8.9-15.9V7.3c0-1-0.5-1.4-1.5-1.4c-1,0-1.4,0.5-1.4,1.4v16.8c0,2.5-0.8,4.6-2.4,6.2c-1.6,1.6-3.7,2.4-6.2,2.4h-12c-6.8-0.6-10.2-4-10.2-10.2V7.3c0-1-0.5-1.4-1.4-1.4c-1,0-1.4,0.5-1.4,1.4v15.2c0,5.4,2.1,9.2,6.4,11.4c2.2,1.2,4.5,1.7,6.9,1.7h5.1c1.6,0,2.9,0.5,3.8,1.4c1,1,1.4,2.2,1.4,3.8c0,1.5-0.5,2.7-1.5,3.7c-1,1-2.3,1.5-3.8,1.5h-10.3c-1.5,0-3,0.4-4.4,1.2c-2.6,1.4-3.8,3.7-3.8,7.1c0,1.6-0.5,2.9-1.4,3.8c-1,1-2.2,1.4-3.8,1.4H94v-3.8h1.9c1,0,1.4-0.5,1.4-1.4c0-4.2,1.5-7.4,4.5-9.6c2.2-1.6,4.7-2.4,7.6-2.4h10.2c1,0,1.5-0.5,1.5-1.4c0-1-0.5-1.4-1.5-1.4h-5c-4,0-7.6-1.2-10.7-3.5c-4.2-3.1-6.3-7.6-6.3-13.5V7.3c0-1.5,0.5-2.8,1.5-3.8c1-1,2.2-1.5,3.8-1.5c1.5,0,2.8,0.5,3.8,1.5c1,1,1.5,2.2,1.5,3.8v15.2c0,2.6,1,4.4,3,5.5c1.2,0.6,2.3,0.9,3.5,0.9h11.7c1.4,0,2.6-0.4,3.5-1.3c0.9-0.9,1.3-2,1.3-3.5V7.3c0-1.5,0.5-2.7,1.5-3.7c1-1,2.3-1.5,3.8-1.5c1.5,0,2.8,0.5,3.8,1.5c1,1,1.5,2.2,1.5,3.8V30.9z" />
	<path className="el_sound" d="M195.4,59.7h-10.5l-20.7-16.2c-2-1.5-3.1-3.5-3.5-5.8c-0.2-1.9,0.4-3.9,1.9-6.2l15.5-23.3c0.6-0.8,0.5-1.5-0.4-2c-0.8-0.5-1.5-0.4-2,0.4L157,34.2h-2.2V7.3c0-1-0.5-1.4-1.4-1.4c-1,0-1.5,0.5-1.5,1.4v47.1c0,1.5-0.5,2.7-1.5,3.7c-1,1-2.3,1.5-3.8,1.5h-1.9v-3.8h1.9c1-0.1,1.5-0.7,1.5-1.6V7.3c0-1.5,0.5-2.8,1.5-3.8c1-1,2.2-1.5,3.8-1.5s2.8,0.5,3.8,1.5c1,1,1.5,2.2,1.5,3.8v17.8l13.9-20.7c0.9-1.2,2-2,3.4-2.3c1.1-0.2,2.1,0,3.2,0.5c2,1,3,2.5,3,4.6c0,1.1-0.3,2.1-0.9,3l-15.6,23.4c-0.8,1.2-1.2,2.2-1.2,3c0,1.4,0.7,2.7,2.1,3.7l19.9,15.4h8.9V59.7z" />
</g>
</svg>